# xmcd
#
# Track frame offsets:
#	150
#	9388
#	23552
#	37955
#	50461
#	64569
#	75894
#	93760
#	108137
#	124088
#	135656
#	150101
#	166493
#	183719
#	201977
#	213380
#	228747
#	251415
#
# Disc length: 3495 seconds
#
# Revision: 1
# Processed by: cddbd v1.5.2PL0 Copyright (c) Steve Scherf et al.
# Submitted via: dBpowerAMP V4.0
#
DISCID=d80da512
DTITLE=Ella Fitzgerald - The Ella Fitzgerald Collection - Vol One
DYEAR=1900
DGENRE=Jazz
TTITLE0=Lover Come Back
TTITLE1=The Start Hour
TTITLE2=Stairway to The Stars
TTITLE3=I've Got You Under my Skin
TTITLE4=Night And Day
TTITLE5=Flyin' Home
TTITLE6=Love is Here to Stay
TTITLE7=My Cousin in Milwaukee
TTITLE8=It's Wonderful
TTITLE9=By Strauss
TTITLE10=Shall we Dance?
TTITLE11=It's Only a Paper Moon
TTITLE12=Cheek to Ckeek
TTITLE13=How High is The Moon
TTITLE14=Lullaby of Broadway
TTITLE15=The Lady is a Tramp
TTITLE16=Love Paris
TTITLE17=You do Something to Me
EXTD=
EXTT0=
EXTT1=
EXTT2=
EXTT3=
EXTT4=
EXTT5=
EXTT6=
EXTT7=
EXTT8=
EXTT9=
EXTT10=
EXTT11=
EXTT12=
EXTT13=
EXTT14=
EXTT15=
EXTT16=
EXTT17=
PLAYORDER=
